<svg width="29" height="29" viewBox="0 0 29 29" fill="none" xmlns="http://www.w3.org/2000/svg">
<path d="M14.5 0.166687C6.58258 0.166687 0.166626 6.58444 0.166626 14.5C0.166626 22.4156 6.58258 28.8334 14.5 28.8334C22.4173 28.8334 28.8333 22.4156 28.8333 14.5C28.8333 6.58444 22.4173 0.166687 14.5 0.166687ZM21.1417 18.6083C21.4776 18.9443 21.6664 19.3999 21.6664 19.875C21.6664 20.3501 21.4776 20.8058 21.1417 21.1417C20.8057 21.4777 20.3501 21.6664 19.875 21.6664C19.3999 21.6664 18.9442 21.4777 18.6083 21.1417L14.5 17.0334L10.3917 21.1417C10.2257 21.3087 10.0283 21.4412 9.8109 21.5316C9.59351 21.622 9.3604 21.6685 9.12496 21.6685C8.88952 21.6685 8.6564 21.622 8.43902 21.5316C8.22163 21.4412 8.02425 21.3087 7.85825 21.1417C7.52237 20.8057 7.33368 20.3501 7.33368 19.875C7.33368 19.3999 7.52237 18.9443 7.85825 18.6083L11.9665 14.5L7.85825 10.3917C7.5223 10.0558 7.33356 9.60013 7.33356 9.12502C7.33356 8.64991 7.5223 8.19426 7.85825 7.85831C8.1942 7.52236 8.64985 7.33362 9.12496 7.33362C9.60007 7.33362 10.0557 7.52236 10.3917 7.85831L14.5 11.9666L18.6083 7.85831C18.9442 7.52236 19.3999 7.33362 19.875 7.33362C20.3501 7.33362 20.8057 7.52236 21.1417 7.85831C21.4776 8.19426 21.6664 8.64991 21.6664 9.12502C21.6664 9.60013 21.4776 10.0558 21.1417 10.3917L17.0334 14.5L21.1417 18.6083Z" fill="#F71823"/>
</svg>
