<svg xmlns="http://www.w3.org/2000/svg" width="18" height="18" fill="none"><path fill="#3F3F3F" d="m3.649 13.289.915.915-1.408.57.493-1.485Z"/><path fill="#F4AA41" d="m4.51 10.469 4.707-4.707 2.828 2.828-4.667 4.667"/><path fill="#A57939" d="m3.603 13.142.879-2.293 2.475 2.474-2.293.88"/><path fill="#EA5A47" d="m10.73 4.248 1.876-1.875L15.434 5.2l-1.86 1.86"/><path fill="#9B9B9A" d="m8.912 6.066 1.921-1.92 2.828 2.828-1.904 1.904"/><path stroke="#000" stroke-linecap="round" stroke-linejoin="round" stroke-miterlimit="10" stroke-width=".5" d="m11.834 3.497.876-.876 2.474 2.475-.868.868m-9.677 4.728 2.475 2.474m-2.457 1.039 2.3-.882 6.498-6.498L10.98 4.35 4.482 10.85l-.885 2.302 1.06 1.054Z"/><path stroke="#000" stroke-linecap="round" stroke-linejoin="round" stroke-miterlimit="10" stroke-width=".5" d="m3.6 13.146-.623 1.683 1.687-.627m4.563-7.95 2.378 2.378"/></svg>