<svg xmlns="http://www.w3.org/2000/svg" width="28" height="28" fill="none"><path fill="#33DF1D" d="M14 0c1.285 0 2.525.164 3.719.492a13.24 13.24 0 0 1 3.336 1.422c1.03.62 1.973 1.349 2.83 2.188.856.838 1.59 1.781 2.2 2.83a14.097 14.097 0 0 1 1.423 10.787 13.239 13.239 0 0 1-1.422 3.336 15.34 15.34 0 0 1-2.188 2.83 13.328 13.328 0 0 1-2.83 2.2 14.099 14.099 0 0 1-10.787 1.423 13.239 13.239 0 0 1-3.336-1.422 15.337 15.337 0 0 1-2.83-2.188 13.328 13.328 0 0 1-2.2-2.83 14.101 14.101 0 0 1-1.41-3.35A14.25 14.25 0 0 1 0 14c0-1.285.164-2.525.492-3.719a13.24 13.24 0 0 1 1.422-3.336 15.34 15.34 0 0 1 2.188-2.83 13.328 13.328 0 0 1 2.83-2.2 14.1 14.1 0 0 1 3.35-1.41A14.25 14.25 0 0 1 14 0Zm8.244 9.365-1.86-1.86-9.009 9.01-3.76-3.76-1.86 1.86 5.62 5.62 10.87-10.87Z"/></svg>